<mxfile host="app.diagrams.net" modified="2021-03-27T23:45:21.013Z" agent="5.0 (Windows NT 10.0; Win64; x64) AppleWebKit/537.36 (KHTML, like Gecko) Chrome/88.0.4324.192 Safari/537.36 OPR/74.0.3911.218" etag="5PMrDWFWZCNLjhbtrUwX" version="14.5.3" type="github">
  <diagram id="KMr6_mmwmNZ2xSml-8PL" name="Page-1">
    <mxGraphModel dx="1536" dy="860" grid="1" gridSize="10" guides="1" tooltips="1" connect="1" arrows="1" fold="1" page="1" pageScale="1" pageWidth="850" pageHeight="1100" math="0" shadow="0">
      <root>
        <mxCell id="0" />
        <mxCell id="1" parent="0" />
        <mxCell id="GaJmVwBK3IuQJCOiFc2b-1" value="" style="aspect=fixed;html=1;points=[];align=center;image;fontSize=12;image=img/lib/azure2/general/Service_Health.svg;" vertex="1" parent="1">
          <mxGeometry x="60" y="170" width="201.75" height="189.88" as="geometry" />
        </mxCell>
        <mxCell id="GaJmVwBK3IuQJCOiFc2b-2" value="" style="html=1;dashed=0;whitespace=wrap;strokeColor=#ffffff;points=[[0.005,0.63,0],[0.1,0.2,0],[0.9,0.2,0],[0.5,0,0],[0.995,0.63,0],[0.72,0.99,0],[0.5,1,0],[0.28,0.99,0]];shape=mxgraph.kubernetes.icon;prIcon=api;fillColor=#2875E2;" vertex="1" parent="1">
          <mxGeometry x="440" y="160" width="194.13" height="199.88" as="geometry" />
        </mxCell>
        <mxCell id="GaJmVwBK3IuQJCOiFc2b-3" value="" style="shape=flexArrow;endArrow=classic;startArrow=classic;html=1;endWidth=26.666666666666664;endSize=8.166666666666666;" edge="1" parent="1">
          <mxGeometry width="50" height="50" relative="1" as="geometry">
            <mxPoint x="300" y="265.2" as="sourcePoint" />
            <mxPoint x="400" y="264.38" as="targetPoint" />
          </mxGeometry>
        </mxCell>
        <mxCell id="GaJmVwBK3IuQJCOiFc2b-5" value="" style="endArrow=none;dashed=1;html=1;dashPattern=1 3;strokeWidth=2;" edge="1" parent="1">
          <mxGeometry width="50" height="50" relative="1" as="geometry">
            <mxPoint x="40" y="380" as="sourcePoint" />
            <mxPoint x="40" y="140" as="targetPoint" />
          </mxGeometry>
        </mxCell>
        <mxCell id="GaJmVwBK3IuQJCOiFc2b-7" value="" style="endArrow=none;dashed=1;html=1;dashPattern=1 3;strokeWidth=2;" edge="1" parent="1">
          <mxGeometry width="50" height="50" relative="1" as="geometry">
            <mxPoint x="40" y="380" as="sourcePoint" />
            <mxPoint x="650" y="380" as="targetPoint" />
          </mxGeometry>
        </mxCell>
        <mxCell id="GaJmVwBK3IuQJCOiFc2b-9" value="" style="endArrow=none;dashed=1;html=1;dashPattern=1 3;strokeWidth=2;" edge="1" parent="1">
          <mxGeometry width="50" height="50" relative="1" as="geometry">
            <mxPoint x="650" y="382.47" as="sourcePoint" />
            <mxPoint x="650" y="137.41" as="targetPoint" />
          </mxGeometry>
        </mxCell>
        <mxCell id="GaJmVwBK3IuQJCOiFc2b-10" value="" style="endArrow=none;dashed=1;html=1;dashPattern=1 3;strokeWidth=2;" edge="1" parent="1">
          <mxGeometry width="50" height="50" relative="1" as="geometry">
            <mxPoint x="40" y="142" as="sourcePoint" />
            <mxPoint x="650" y="142" as="targetPoint" />
          </mxGeometry>
        </mxCell>
      </root>
    </mxGraphModel>
  </diagram>
</mxfile>
